<svg version="1.1" id="Capa_2" xmlns="http://www.w3.org/2000/svg" x="0" y="0" viewBox="0 0 1198.3 1600" xml:space="preserve"><style>.st1{fill:#fff}</style><path d="M10 10v1492c0 6 3 26 18 45 4 4 18 20 42 25 24 4 43-6 48-9 9-6 12-10 35-34l26-27 352-389c3-4 22-22 52-21 29 0 47 18 50 22l372 388 35 39c22 23 28 30 40 36 6 2 19 8 36 8 35-2 56-32 57-34 14-21 13-43 12-49V10H10z" fill="#ec2d34" stroke="#ec2d34" stroke-miterlimit="10"/><path class="st1" d="M1103 1583l-14-4V10h14zM94 1572V10h14v1559zM264 269c0 8-2 17-4 24a56 56 0 01-32 31c-7 3-16 5-25 5h-46V209h46c9 0 18 1 25 4a56 56 0 0132 31c2 8 4 16 4 25zm-23 0c0-7-1-13-3-18-1-5-4-10-7-13-3-4-7-7-12-9s-10-3-16-3h-23v85h23c6 0 11-1 16-3s9-5 12-8c3-4 6-8 7-14l3-17zM313 329h-23V209h23v120zM410 230c0 2-1 2-2 3l-3 1-4-2a115 115 0 00-11-5l-9-2-8 2-6 3-3 4-2 7c0 2 1 5 3 7 1 2 3 3 6 4l9 4a483 483 0 0120 8c4 1 7 3 9 6a27 27 0 019 21c0 6-1 11-3 15a35 35 0 01-21 21 57 57 0 01-57-13l6-10 2-2 3-1c2 0 3 0 5 2a120 120 0 0013 7l11 2c6 0 11-2 15-5 3-3 5-7 5-13l-2-7-7-6-9-3a316 316 0 01-20-7l-9-6-6-9a36 36 0 018-38c3-3 7-6 12-8s11-3 17-3c7 0 13 1 19 4 6 2 12 5 16 9l-6 10zM526 300l4 2 9 9c-5 6-11 11-18 14-8 3-16 5-26 5-9 0-17-1-24-5a53 53 0 01-30-32 73 73 0 010-49c3-8 7-14 12-20a62 62 0 0143-17c9 0 17 2 24 5 6 2 12 6 17 11l-8 10-1 2-3 1-3-1-3-2a116 116 0 00-8-4 40 40 0 00-15-3l-15 3-11 8-8 14-2 18 3 18 7 13c4 4 8 6 12 8s9 3 14 3h9a35 35 0 0012-5l6-4 2-1 1-1zM673 269c0 8-2 17-5 24a57 57 0 01-31 32c-8 4-16 5-25 5s-18-1-25-5a56 56 0 01-32-32c-3-7-4-16-4-24s1-17 4-25a57 57 0 0157-37 68 68 0 0132 8 55 55 0 0121 22l6 15 2 17zm-23 0c0-7-1-13-3-18s-4-10-8-13c-3-4-7-7-11-9-5-2-10-3-16-3s-11 1-16 3-9 5-12 9l-8 13-2 18 2 17c2 6 5 10 8 14 3 3 7 6 12 8s10 3 16 3 11-1 16-3l11-8c4-4 6-8 8-14 2-5 3-11 3-17zM747 311l12-2 8-7c3-2 5-5 6-9l2-12v-72h22v72c0 7-1 13-3 19a45 45 0 01-26 26c-6 3-13 4-21 4s-14-1-21-4a45 45 0 01-25-26c-2-6-4-12-4-19v-72h23v71c0 5 0 9 2 13a24 24 0 0014 16l11 2zM930 209v120h-11l-5-1-3-3-63-80 1 10v74h-20V209h16l1 1 2 2 63 81a198 198 0 01-1-11v-73h20zM1047 227h-36v102h-22V227h-36v-18h94v18z"/></svg>