<svg version="1.1" id="TheMorfi" xmlns="http://www.w3.org/2000/svg" x="0" y="0" viewBox="0 0 2097.64 1600.5" xml:space="preserve"><style>.st2{stroke:#fff;stroke-miterlimit:10}.st3{fill:#00c600}.st4{fill:#009736}</style><g id="Icon"><g id="GroupIcon"><circle id="WhiteBackground" cx="1046" cy="437" r="352" fill="#fff"/><path id="Shape" d="M1053 44c220.08 8.03 386.94 184.12 380 401-7.1 221.68-185.37 392.63-403 384-213.38-8.46-380.51-190.06-373-403 7.74-219.51 184.29-389.72 396-382zM940 298c-2.29 2.07-6.71 5.93-9 8-29.18-35.52-55.82-73.48-85-109-1.92 1.69-9.08 5.31-11 7 27.27 38.42 57.73 73.58 85 112-3.06 2.28-7.94 6.72-11 9-28.79-36.95-56.21-75.05-85-112-3.12 2.28-5.88 3.72-9 6 26.24 36.16 51.39 73.92 79 109 15.45 19.63 35.11 31.95 63 20 4.89-2.09 16.17 2.42 21 6 58.43 43.25 56.14 73.08 13 131-37.49 50.33-69.48 96.62-104 149-6.53 9.91-11.35 26.48 3 37 12.43 8.61 28.14 5.66 38.48-4.17 8.76-8.32 20.22-26.4 27.52-38.83 33.37-56.84 64.22-108.58 100-170 19.65 29.26 34.31 49.27 49 74 21.57 36.3 48.51 75.32 71 111 3.14 4.98 16.69 7.76 28 2 8.05-4.1 9.42-15.52 9-20-1.16-12.34-9.23-22.61-17-33-31.8-42.53-63.67-85.14-95-128-9.65-13.2-23.97-36.82-19-44 18.82-27.17 27.34-67.44 69-72 61.5-6.73 86.85-27.92 102-86 8.55-32.75 16.93-69.02-14-91-31.72-22.55-63.67 3.09-91 22-49.94 34.57-56.25 63.33-40 126 1.53 5.9-5.43 23.68-9 28-16.49 19.95-27.33 36.35-46 57-23.65-27.7-65.27-55.02-67-81-2.88-43.11-29.07-63.95-51-91-17.88-22.06-35.86-40.96-55-62-1.75 1.72-4.25 3.28-6 5 28.67 35.65 56.33 70.35 85 106-2.96 2.47-5.04 5.53-8 8-30.14-35.69-59.86-70.31-90-106-2.02 1.6-4.98 4.4-7 6 27.89 36.43 58.1 72.57 86 109zm28 392c21.75 38.54 51.59 67.15 98 69 35.15 1.4 73.2-24.27 91-62-68.06 54.14-129.03 44.63-189-7z"/><path id="GreenCircle" d="M1478 437c-.37 241.18-196.56 438.39-438 437-233.37-1.34-427.98-199.47-428-437C611.97 197.9 807.48-.26 1042.69 0 1283.9.27 1478.37 194.5 1478 437zm-846-1c-.49 229.66 182.56 417.26 411 419 226.55 1.72 415.76-187.84 417-417 1.25-230.9-188.62-419.36-417-419-227.64.36-410.52 187.48-411 417z" fill="#009c00"/></g></g><g id="TM_x26_HL"><g id="HealthyLife"><path class="st2" d="M153.5 1411.5v188h-14v-90h-118v90h-14v-188h14v88h118v-88h14zM356.16 1588.5l-.26 11H245.5v-188h113v11h-99v77h83v11h-83v78h96.66zM580.21 1599.5h-10.74c-1.24 0-2.25-.33-3.05-.99-.79-.66-1.41-1.52-1.85-2.58l-21.98-54.42h-92.03l-21.98 54.42c-.35.97-.97 1.81-1.85 2.52-.88.71-1.94 1.06-3.18 1.06h-10.61l76.93-188h13.42l76.92 187.99zm-41.48-68l-38.36-95.23c-1.33-3.11-2.62-6.84-3.86-11.19-.53 2.13-1.11 4.15-1.73 6.06-.62 1.91-1.29 3.66-2 5.26l-38.36 95.1h84.31zM751.5 1588.5v11h-103v-188h14v177h89zM916.5 1423.5h-66v177h-14v-177h-67v-12h147v12zM1130.5 1411.5v188h-14v-90h-117v90h-14v-188h14v88h117v-88h14zM1281.5 1522.35v77.15h-14v-77.15l-69.24-110.85h11.99c1.24.04 2.26.33 3.06.91.8.58 1.46 1.4 2 2.46l53.94 86.57c1.15 2.04 2.22 4.02 3.2 5.93.98 1.91 1.82 3.8 2.53 5.66.71-1.86 1.51-3.75 2.4-5.66.89-1.91 1.91-3.88 3.06-5.93l53.94-86.57c.44-.98 1.09-1.77 1.93-2.4.84-.62 1.89-.93 3.13-.97h11.99l-69.93 110.85zM1621.5 1588.5v11h-103v-188h14v177h89zM1703.5 1599.5h-14v-188h14v188zM1810.5 1422.5v80h86v11h-86v86h-14v-188h113v11h-99zM2094.16 1588.5l-.26 11h-110.4v-188h113v11h-99v77h83v11h-83v78h96.66z"/></g><g id="Themorfi"><g id="Morfi"><path class="st3" d="M1276 1179c-2.68-50.47-5.54-116.9-5-162h-2.85c-12.31 42.3-24.95 86.21-43.15 136l-65 175h-35l-60-171c-17.13-50.86-29.83-97.17-40-140h-2c-1.07 45.1-2.78 104.78-6 159l-11 156h-42l24-362h58l63 173c15 44.47 25.89 86.49 35 124h4c9.11-36.42 19.93-78.47 36-124l65-173h59l21 362h-42l-11-153zM1638 1199c0 95.89-66.32 136-129 136-70.18 0-125-51.04-125-133 0-86.78 56.22-137 128-137 74.46 0 126 54.71 126 134zm-207 1c0 56.79 32.93 101 79 101 45 0 79-42.61 79-101 0-43.93-21.29-100-77-100-55.72 0-81 50.72-81 100zM1698 1152.05c0-30.5-.41-55.98-2-80.05h41v50h4c11.83-34.82 38.19-56.08 69.91-56.08 5.38 0 9.79.01 14.09 1.08v44c-4.84-1.07-8.55-2-15-2-33.33 0-56.55 24.64-63 60-1.07 6.43-4 15.69-4 23.72V1331h-45v-178.95zM1892 1330v-224h-36v-34h38v-16c0-68.57 38.58-111 112-111 24.29 0 53.5 7.36 67 17l-13 36c-11.34-8.04-31.79-15-55-15-50.21 0-65 32.75-65 74l-.07 15H2090v258h-47v-223h-103v223h-48z"/></g><g id="The"><path class="st4" d="M108 1009H0v-40h265v40H155v322h-47v-322zM302 950h46v162h4c7.44-13.39 17.66-25.97 32-34 13.81-8.03 29.47-13 47-13 34.53 0 90 21.4 90 110.81V1330h-47v-149c0-41.79-15.99-77-60-77-30.22 0-53.52 22.29-62 48-2.65 6.43-4 11.89-4 21v157h-46V950zM625 1209c1.07 63.75 41.86 89 89 89 33.75 0 53.32-5.5 71-13l8 34c-16.61 7.5-44.75 16-86 16-79.82 0-127-52.79-127-131s45.45-139.02 120.98-139.02c84.64 0 107.02 74.34 107.02 122.02 0 9.64-.46 17.18-1 22H625zm138.43-32c.54-30-13.24-79.02-66.27-79.02-47.68 0-67.62 46.34-71.37 79.02h137.64z"/></g></g></g></svg>