<svg version="1.1" id="TheMorfi" xmlns="http://www.w3.org/2000/svg" x="0" y="0" viewBox="0 0 2400 685.56" xml:space="preserve"><style>.st2{fill:#009736}.st3{fill:#00c600}</style><g id="Icon"><g id="GroupIcon"><circle id="WhiteBackground" cx="340" cy="342.99" r="276" fill="#fff"/><path id="Shape" d="M346 34.99c172.68 6.3 303.45 144.83 298 315-5.57 173.94-146.25 307.77-317 301-167.42-6.64-297.9-148.92-292-316 6.08-172.23 144.89-306.06 311-300zm-89 200c-1.8 1.63-5.2 4.37-7 6-22.9-27.87-44.1-58.13-67-86-1.51 1.33-6.49 4.67-8 6 21.4 30.15 44.6 57.85 66 88-2.4 1.79-5.6 5.21-8 7-22.59-28.99-44.41-59.01-67-88-2.45 1.79-4.55 3.21-7 5 20.59 28.37 40.34 57.48 62 85 12.12 15.4 27.11 25.37 49 16 3.84-1.64 11.21 1.19 15 4 45.85 33.94 47.85 56.55 14 102-29.41 39.49-56.92 78.9-84 120-5.12 7.78-8.26 18.75 3 27 9.76 6.75 21.88 4.71 30-3 6.87-6.53 14.28-17.25 20-27 26.19-44.6 51.93-88.81 80-137 15.42 22.96 29.47 41.59 41 61 16.92 28.48 34.35 56.01 52 84 2.47 3.91 13.13 7.52 22 3 6.32-3.22 8.33-12.48 8-16-.91-9.68-6.91-18.85-13-27-24.95-33.37-50.42-66.37-75-100-7.57-10.36-18.9-28.37-15-34 14.77-21.32 21.31-53.42 54-57 48.25-5.28 68.11-19.43 80-65 6.7-25.7 14.27-56.75-10-74-24.89-17.69-51.56 4.16-73 19-39.18 27.12-43.75 48.83-31 98 1.2 4.63-1.2 16.61-4 20-12.94 15.65-25.35 28.79-40 45-18.56-21.74-49.64-40.62-51-61-2.26-33.82-21.79-50.78-39-72-14.03-17.31-28.99-33.49-44-50-1.37 1.35-3.63 2.65-5 4 22.5 27.97 44.5 55.03 67 83-2.33 1.94-4.67 5.06-7 7-23.65-28.01-46.35-55.99-70-84-1.59 1.26-3.41 2.74-5 4 21.89 28.58 45.11 58.41 67 87zm22 307c17.07 30.24 38.59 52.55 75 54 27.58 1.1 59.04-18.4 73-48-53.4 42.48-100.94 34.51-148-6z"/><path id="GreenCircle" d="M679 343.99c-.29 189.23-154.71 342.65-344.15 341.57C151.75 684.5.02 529.22 0 342.85-.02 155.25 153.06-.2 337.61 0 526.87.21 679.29 153.72 679 343.99zm-664-2c-.38 180.2 143.77 327.64 323 329 177.75 1.35 326.03-147.2 327-327 .98-181.17-146.81-329.29-326-329-178.61.28-323.62 146.92-324 327z" fill="#009c00"/></g></g><g id="The"><path class="st2" d="M845 213.99h-85v-31h208v31h-86v253h-37v-253zM997 167.99h36v127h3c5.85-10.5 13.72-20.7 25-27 10.86-6.3 23.22-10 37-10 27.15 0 71 16.92 71 87.05v120.95h-37V349.14c0-32.79-12.42-60.15-47-60.15-23.75 0-42.33 16.82-49 37-2.08 5.04-3 9.8-3 16.94v123.06h-36v-298zM1250 370.99c.84 50.02 33.01 70 70 70 26.48 0 42.13-4.12 56-10l6 26c-13.03 5.88-34.63 13-67 13-62.63 0-100.02-41.33-100.02-102.7s35.76-109.3 95.02-109.3c66.41 0 84 58.59 84 96 0 7.57-.58 13.22-1 17h-143zm109-25c.42-23.54-10.39-62-52-62-37.41 0-53.06 36.36-56 62h108z"/></g><g id="Morfi"><path class="st3" d="M1761 341.99c-2.1-39.57-4.42-86.64-4-122h-2c-9.66 33.18-19.72 67.93-34 107l-51 137h-27l-47-134c-13.44-39.91-24.02-76.4-32-110h-1c-.84 35.36-2.47 82.48-5 125l-9 122h-33l19-284h46l50 137c11.77 34.89 19.85 66.58 27 96h2c7.14-28.58 15.39-60.28 28-96l52-137h46l17 284h-35l-7-125zM2045 362.99c0 75.24-51.82 107-101 107-55.06 0-98-40.69-98-105 0-68.09 43.68-107 100-107 58.43 0 99 42.79 99 105zm-162 1c0 44.55 25.85 79 62 79 35.31 0 62-33.18 62-79 0-34.47-17.29-79-61-79s-63 40.33-63 79zM2092 325.73c0-23.9-.73-43.87-2-62.75h33v39h3c9.23-27.32 30.25-44 55-44 4.2 0 7.64.16 11 1v34c-3.78-.84-6.97-1-12-1-26.01 0-43.97 20.26-49 48-.84 5.04-3 11.18-3 17.49v108.51h-36V325.73zM2244 465.99v-176h-28v-27h30v-12.33c0-53.8 30.54-87.67 88-87.67 19.01 0 41.44 6.43 52 14l-10 28c-8.87-6.31-24.83-12-43-12-39.29 0-51 27.63-51 60l-.06 10H2400v203h-37v-175h-81v175h-38z"/></g></svg>