<svg xmlns="http://www.w3.org/2000/svg" viewBox="0 0 1584.69 1600"><circle cx="793.96" cy="800" r="644" fill="#fff"/><path d="M807.96 82c403 14.7 707.72 336.85 695 734-13 405.94-340.49 718.8-739 703-390.74-15.49-695.76-347.07-682-737 14.19-401.97 338.34-714.15 726-700zm-208 466c-4.19 3.8-11.81 10.2-16 14-53.44-65.05-103.56-134.95-157-200-3.52 3.1-14.48 9.9-18 13 49.94 70.36 103.06 135.64 153 206-5.61 4.17-12.39 11.83-18 16-52.72-67.66-104.28-137.34-157-205-5.71 4.18-10.29 7.82-16 12 48.05 66.21 96.44 136.77 147 201 28.29 35.94 62.92 54.88 114 33 8.95-3.83 27.15 6.45 36 13 107 79.2 109 129.93 30 236-68.65 92.16-126.8 175.09-190 271-11.96 18.15-25.27 52.73 1 72 22.77 15.76 50.89 10.91 69.83-7.09 16.04-15.24 31.81-37.16 45.17-59.91 61.12-104.08 122.49-210.52 188-323 35.98 53.58 71.09 101.71 98 147 39.49 66.47 77.81 126.67 119 192 5.75 9.13 31.29 17.55 52 7 14.74-7.51 17.77-33.79 17-42-2.12-22.6-16.78-41.98-31-61-58.23-77.87-117.64-155.51-175-234-17.67-24.17-40.1-66.86-31-80 34.46-49.76 52.71-122.66 129-131 112.61-12.32 155.25-47.64 183-154 15.65-59.97 29.64-129.74-27-170-58.09-41.29-113.96 7.36-164 42-91.45 63.3-106.75 112.24-77 227 2.8 10.81-5.46 48.08-12 56-30.19 36.53-53.81 61.18-88 99-43.31-50.73-117.83-96.43-121-144-5.26-78.94-50.84-115.47-91-165-32.75-40.39-67.96-77.47-103-116-3.2 3.15-8.8 5.85-12 9 52.51 65.28 104.49 128.72 157 194-5.43 4.53-10.57 11.47-16 16-55.19-65.36-108.81-130.64-164-196-3.7 2.93-8.3 6.07-12 9 51.09 66.71 105.92 136.29 157 203zm52 720c39.83 70.57 92.02 119.61 177 123 64.37 2.57 133.41-38.91 166-108-124.62 99.13-233.17 79.55-343-15z"/><path d="M1584.69 802.82c-.68 441.65-361.08 799.7-803.19 797.17C354.15 1597.53.04 1235.11 0 800.16-.04 362.33 357.22-.48 787.93 0c441.7.49 797.44 358.75 796.76 802.82zM34.96 798c-.89 420.55 335.57 764.81 753.88 767.99 414.85 3.15 760.9-343.53 763.17-763.17 2.29-422.83-342.64-768.5-760.84-767.84C374.34 35.64 35.85 377.71 34.96 798z" fill="#009c00"/></svg>